Coordinates
version=1
nRows=12
nColumns=24
inDegrees=yes

Units are S.I. units (second, meters, Newtons, ...)
Angles are in degrees.

endheader
time	pelvis_tilt	pelvis_list	pelvis_rotation	pelvis_tx	pelvis_ty	pelvis_tz	hip_flexion_r	hip_adduction_r	hip_rotation_r	knee_angle_r	ankle_angle_r	subtalar_angle_r	mtp_angle_r	hip_flexion_l	hip_adduction_l	hip_rotation_l	knee_angle_l	ankle_angle_l	subtalar_angle_l	mtp_angle_l	lumbar_extension	lumbar_bending	lumbar_rotation
      4.04000000	     -9.34568354	     -2.00762320	     -4.78752155	     -1.23827604	     -0.00280595	     -0.64084151	      4.08386697	      5.43756194	     -6.06517798	     -6.54574563	      4.65904630	     -6.41290759	      4.66507048	     34.92672752	     -8.39297695	    -18.35653071	    -52.27108343	     -4.17436339	    -12.64790757	      9.19208130	      7.24161593	      5.52429047	      0.08173372
      4.04500000	     -9.43862703	     -1.96819165	     -4.77797658	     -1.23287971	     -0.00338034	     -0.64077216	      3.75235348	      5.38236414	     -6.20779194	     -6.40378159	      4.90222161	     -6.22121425	      4.92129268	     35.26714045	     -8.27116295	    -18.60616207	    -50.84528859	     -3.41415835	    -12.48612429	      7.14539924	      7.28216004	      5.43375122	      0.18480903
      4.05000000	     -9.62520899	     -1.92065632	     -4.85214005	     -1.22754031	     -0.00404832	     -0.64056293	      3.54714225	      5.34407151	     -6.15925778	     -6.30563437	      5.10403656	     -6.18905736	      4.95959053	     35.64115190	     -8.20384204	    -18.90681523	    -49.23903126	     -3.16241494	    -12.55644244	      6.93191113	      7.40607893	      5.35260919	      0.36336756
      4.05500000	     -9.64227594	     -1.86178698	     -4.91596984	     -1.22215287	     -0.00456871	     -0.64051327	      3.16592314	      5.25273254	     -6.28127990	     -6.22585443	      5.40050017	     -5.84054085	      5.11804109	     35.79510429	     -8.08760211	    -19.28782108	    -47.61138511	     -2.57752845	    -12.46234082	      5.25476368	      7.34781596	      5.25872642	      0.59008637
      4.06000000	     -9.86536068	     -1.85028039	     -4.97454018	     -1.21679819	     -0.00537256	     -0.64039790	      3.01264139	      5.25013361	     -6.25484233	     -6.15708341	      5.59634293	     -5.83030765	      5.15339358	     36.15700024	     -8.03104887	    -19.57324071	    -45.88411708	     -2.33746908	    -12.40814288	      5.07697438	      7.50573932	      5.21886612	      0.74352448
      4.06500000	     -9.98937019	     -1.81742491	     -5.12333926	     -1.21144693	     -0.00606016	     -0.64026769	      2.77815223	      5.20394489	     -6.24877597	     -6.13482326	      5.85889311	     -5.56555504	      5.23017507	     36.34260774	     -7.99411471	    -20.01860349	    -44.07931854	     -2.01997708	    -12.28612472	      4.47470288	      7.54513694	      5.17453093	      1.06319271
      4.07000000	    -10.18764774	     -1.83297608	     -5.09349148	     -1.20603478	     -0.00693549	     -0.64033297	      2.58814864	      5.21593019	     -6.32153042	     -6.06142420	      6.06929689	     -5.55650664	      5.25616923	     36.62522951	     -7.87289348	    -20.21003683	    -42.22124644	     -1.74408885	    -12.02894817	      4.29164997	      7.67987290	      5.14550200	      1.11077602
      4.07500000	    -10.22024445	     -1.81133739	     -5.12386804	     -1.20056548	     -0.00761694	     -0.64043736	      2.24792108	      5.14720940	     -6.57093112	     -6.04446945	      6.39962139	     -5.08063848	      5.43986124	     36.65509259	     -7.72486631	    -20.55160180	    -40.30967181	     -1.18848230	    -11.53192992	      3.14507240	      7.63891899	      5.08561163	      1.28565196
      4.08000000	    -10.46326268	     -1.84302176	     -5.19198492	     -1.19515283	     -0.00857459	     -0.64046440	      2.13386032	      5.17794069	     -6.57393915	     -6.02352480	      6.60693551	     -5.00739789	      5.50182526	     36.89200470	     -7.66516784	    -20.86270675	    -38.33025043	     -0.90797787	    -11.05692596	      3.06973069	      7.80914829	      5.10069023	      1.46570872
      4.08500000	    -10.62922611	     -1.87531974	     -5.22488192	     -1.18968396	     -0.00945837	     -0.64054209	      1.93226305	      5.19398027	     -6.66775826	     -6.00496113	      6.82392471	     -4.83066288	      5.55886126	     37.00074641	     -7.56522991	    -21.15546404	    -36.28286092	     -0.61414441	    -10.40224616	      3.07503810	      7.90509301	      5.09694196	      1.60890220
      4.09000000	    -10.78015247	     -1.91517512	     -5.24507039	     -1.18418533	     -0.01034942	     -0.64067147	      1.71663979	      5.21038590	     -6.79863086	     -5.99623040	      7.04366775	     -4.61250253	      5.62045496	     37.05978837	     -7.44925764	    -21.44060099	    -34.19048082	     -0.33475505	     -9.62373933	      3.19369206	      7.98364628	      5.09892376	      1.73609806
      4.09500000	    -10.93035190	     -1.96159920	     -5.24648978	     -1.17865781	     -0.01126467	     -0.64087742	      1.49883656	      5.22554324	     -6.94305043	     -5.99055167	      7.25720595	     -4.37746213	      5.68457075	     37.09382009	     -7.31801569	    -21.72747753	    -32.07234052	     -0.07871800	     -8.72213129	      3.44216910	      8.06308680	      5.11215944	      1.84460319
